<svg width="101" height="101" viewBox="0 0 101 101" fill="none" xmlns="http://www.w3.org/2000/svg">
<circle cx="50.5" cy="50.5" r="50.5" fill="#F8F5E9"/>
<path d="M39.343 20.5523H27.0116C26.0387 20.5523 25.25 21.341 25.25 22.314V82.2093C25.25 83.1822 26.0387 83.9709 27.0116 83.9709H76.3372C77.3102 83.9709 78.0988 83.1822 78.0988 82.2093V22.314C78.0988 21.341 77.3102 20.5523 76.3372 20.5523H64.0058" stroke="#9DC08B" stroke-width="2"/>
<path d="M39.343 29.3605V20.5523H46.3023C46.3504 20.5523 46.3895 20.5133 46.3895 20.4651V17.0291C46.3895 14.1103 48.7556 11.7442 51.6744 11.7442C54.5933 11.7442 56.9593 14.1103 56.9593 17.0291V20.4651C56.9593 20.5133 56.9984 20.5523 57.0465 20.5523H64.0058V29.3605C64.0058 30.3334 63.2171 31.1221 62.2442 31.1221H41.1046C40.1317 31.1221 39.343 30.3334 39.343 29.3605Z" fill="#56325E" stroke="#9DC08B" stroke-width="2"/>
<path d="M46.6024 47.4208L40.8991 53.047L37.6621 49.8871L35.9666 51.5827L40.8991 56.5152L48.2979 49.1164L46.6024 47.4208ZM46.6024 37.4016L40.8991 43.0278L37.6621 39.8678L35.9666 41.5634L40.8991 46.496L48.2979 39.0971L46.6024 37.4016ZM46.6024 57.4401L40.8991 63.0663L37.6621 59.9064L35.9666 61.6019L40.8991 66.5345L48.2979 59.1356L46.6024 57.4401Z" fill="#3A7D44"/>
<path d="M51.3808 50.4266H66.795V53.5094H51.3808V50.4266ZM51.3808 40.4073H66.795V43.4902H51.3808V40.4073ZM51.3808 60.4459H66.795V63.5287H51.3808V60.4459Z" fill="#9DC08B"/>
</svg>
